<svg
width="156"
height="42"
viewBox="0 0 156 42"
fill="none"
xmlns="http://www.w3.org/2000/svg"
>
<path
    d="M38.9196 33.0992V7.17951H48.7398C51.0712 7.17951 53.1083 7.50643 54.8509 8.16026C56.6172 8.81409 58.089 9.72478 59.2665 10.8923C60.444 12.0365 61.3271 13.3676 61.9158 14.8854C62.5046 16.4032 62.7989 18.0144 62.7989 19.7191V20.4896C62.7989 22.0542 62.5046 23.5953 61.9158 25.1132C61.3271 26.6076 60.444 27.962 59.2665 29.1762C58.089 30.3671 56.6172 31.3245 54.8509 32.0484C53.1083 32.749 51.0712 33.0992 48.7398 33.0992H38.9196ZM49.0224 13.2741H45.49V27.0046H49.0224C51.2596 27.0046 53.0023 26.3858 54.2504 25.1482C55.5221 23.9106 56.158 22.2293 56.158 20.1043C56.158 17.8626 55.5221 16.1697 54.2504 15.0255C53.0023 13.8579 51.2596 13.2741 49.0224 13.2741Z"
    fill="#FEBA02"
/>
<path
    d="M75.845 33.6597C73.5607 33.6597 71.606 33.216 69.9811 32.3286C68.3562 31.4179 67.1198 30.2154 66.2721 28.7209C65.4243 27.2264 65.0004 25.5802 65.0004 23.7821V22.9415C65.0004 21.0501 65.436 19.3571 66.3074 17.8626C67.2023 16.3448 68.4622 15.1422 70.0871 14.2549C71.712 13.3676 73.6313 12.9239 75.845 12.9239C78.0586 12.9239 79.9779 13.3676 81.6029 14.2549C83.2278 15.1422 84.4759 16.3448 85.3473 17.8626C86.2421 19.3571 86.6896 21.0501 86.6896 22.9415V23.7821C86.6896 25.5802 86.2657 27.2264 85.4179 28.7209C84.5701 30.2154 83.3338 31.4179 81.7088 32.3286C80.1075 33.216 78.1528 33.6597 75.845 33.6597ZM75.845 28.3356C77.3051 28.3356 78.4001 27.8686 79.1302 26.9345C79.8837 26.0005 80.2605 24.8096 80.2605 23.3618C80.2605 21.8674 79.872 20.6414 79.0948 19.684C78.3412 18.7266 77.258 18.2479 75.845 18.2479C74.432 18.2479 73.3369 18.7266 72.5598 19.684C71.8062 20.6414 71.4294 21.8674 71.4294 23.3618C71.4294 24.8096 71.7944 26.0005 72.5245 26.9345C73.2781 27.8686 74.3849 28.3356 75.845 28.3356Z"
    fill="#FEBA02"
/>
<path
    d="M99.1111 33.6597C97.4155 33.6597 95.9437 33.3911 94.6955 32.854C93.4474 32.2936 92.3994 31.5464 91.5517 30.6123C90.7274 29.6783 90.1034 28.6158 89.6795 27.4249C89.2791 26.234 89.0789 24.9964 89.0789 23.7121V23.0116C89.0789 21.2135 89.4557 19.5556 90.2093 18.0378C90.9865 16.4966 92.1168 15.259 93.6005 14.3249C95.1077 13.3909 96.9445 12.9239 99.1111 12.9239C100.901 12.9239 102.479 13.2741 103.845 13.9747C105.21 14.6752 106.294 15.6443 107.094 16.8819C107.919 18.0962 108.378 19.4972 108.472 21.0851H102.184C102.114 20.3145 101.819 19.6607 101.301 19.1236C100.807 18.5865 100.077 18.318 99.1111 18.318C97.8865 18.318 96.9798 18.785 96.3911 19.7191C95.8024 20.6297 95.508 21.844 95.508 23.3618C95.508 24.8096 95.767 25.9888 96.2851 26.8995C96.8268 27.8102 97.7688 28.2655 99.1111 28.2655C100.1 28.2655 100.854 28.0087 101.372 27.495C101.913 26.9812 102.231 26.2807 102.326 25.3934H108.613C108.519 27.0279 108.048 28.464 107.2 29.7016C106.376 30.9392 105.269 31.9083 103.88 32.6089C102.49 33.3094 100.901 33.6597 99.1111 33.6597Z"
    fill="#FEBA02"
/>
<path
    d="M115.406 12.0832C114.252 12.0832 113.392 11.7914 112.827 11.2076C112.285 10.6004 112.014 9.82986 112.014 8.89582C112.014 7.96178 112.285 7.20287 112.827 6.61909C113.392 6.01196 114.252 5.7084 115.406 5.7084C116.583 5.7084 117.443 6.01196 117.984 6.61909C118.526 7.20287 118.797 7.96178 118.797 8.89582C118.797 9.82986 118.526 10.6004 117.984 11.2076C117.443 11.7914 116.583 12.0832 115.406 12.0832ZM112.792 32.9591V18.2479H110.319V13.6244H119.221V32.9591H112.792Z"
    fill="#FEBA02"
/>
<path
    d="M124.371 32.9591V18.6683H122.181V14.0447H124.371V13.6945C124.371 9.21106 126.985 6.96936 132.213 6.96936H134.721V11.6629H132.072C130.894 11.6629 130.305 12.2467 130.305 13.4143V14.0447H135.003V18.6683H130.305V32.9591H124.371Z"
    fill="#FEBA02"
/>
<path
    d="M141.446 32.5388L135.759 13.6244H142.188L146.144 27.6351H146.78L149.924 13.6244H156L150.878 34.3602C150.501 35.9481 149.971 37.1973 149.288 38.108C148.629 39.0421 147.711 39.6959 146.533 40.0695C145.379 40.4665 143.872 40.665 142.012 40.665H138.232V35.3409H142.718C143.542 35.3409 144.166 35.1775 144.59 34.8506C145.038 34.547 145.356 33.9749 145.544 33.1343L145.685 32.5388H141.446Z"
    fill="#FEBA02"
/>
<path
    d="M24.2037 37.77L20.2858 33.8851L18.1528 36.0001L24.2037 42L36.3056 30.0001L34.1727 27.8852L24.2037 37.77Z"
    fill="#FEBA02"
/>
<path
    d="M13.6146 39H3.02547V3.00047H15.1273V12.0004C15.1297 12.7953 15.4493 13.5569 16.0161 14.119C16.583 14.6811 17.3512 14.998 18.1528 15.0003H27.2292V24.0002H30.2547V12.0004C30.26 11.8032 30.2222 11.6073 30.1439 11.426C30.0655 11.2448 29.9485 11.0825 29.8009 10.9504L19.2117 0.450505C19.0786 0.304023 18.9149 0.187933 18.7321 0.110244C18.5493 0.0325553 18.3516 -0.00488368 18.1528 0.000510054H3.02547C2.2238 0.00288412 1.45565 0.319713 0.888785 0.881802C0.321917 1.44389 0.00239425 2.20556 0 3.00047V39C0.00239425 39.7949 0.321917 40.5566 0.888785 41.1187C1.45565 41.6808 2.2238 41.9976 3.02547 42H13.6146V39ZM18.1528 3.60047L26.6241 12.0004H18.1528V3.60047Z"
    fill="#FEBA02"
/>
</svg>